<svg width="1898" height="758" viewBox="0 0 1898 758" fill="none" xmlns="http://www.w3.org/2000/svg">
<path d="M400.462 425.484L400.524 204.555L400.524 204.251L400.26 204.098L208.901 93.69L112.836 149.404L112.628 260.439L208.73 204.744L304.222 259.852L304.2 370.105L207.917 425.484L304.18 480.821L400.462 425.484Z" fill="url(#paint0_linear_296_7)"/>
<path d="M208.129 204.092L16.7683 314.503L16.5044 314.654L16.5045 314.96L16.5676 535.886L112.849 591.223L209.112 535.886L112.829 480.507L112.807 370.255L208.3 315.146L304.401 370.841L304.193 259.806L208.129 204.092Z" fill="url(#paint1_linear_296_7)"/>
<path d="M112.494 480.37L303.793 590.888L304.056 591.041L304.321 590.888L495.617 480.37L495.399 369.319L399.344 313.621L399.526 424.695L304.056 479.84L208.584 424.695L208.767 313.621L112.711 369.319L112.494 480.37Z" fill="url(#paint2_linear_296_7)"/>
<path d="M221.864 417.604L208.833 425.128L303.963 480.051L316.994 472.527L221.864 417.604Z" fill="url(#paint3_linear_296_7)"/>
<path d="M291.29 363.566L304.321 371.089L304.008 260.281L290.977 252.757L291.29 363.566Z" fill="url(#paint4_linear_296_7)"/>
<path d="M112.522 369.245L112.522 384.292L208.513 329.38L208.769 313.89L112.522 369.245Z" fill="url(#paint5_linear_296_7)"/>
<path d="M304.109 148.754L208.979 203.677L208.979 93.8306L304.109 148.754Z" fill="url(#paint6_linear_296_7)"/>
<path d="M399.797 534.511L399.797 424.665L494.926 479.588L399.797 534.511Z" fill="url(#paint7_linear_296_7)"/>
<path d="M16.4719 425.757L111.602 480.681L16.4719 535.604L16.4719 425.757Z" fill="url(#paint8_linear_296_7)"/>
<path d="M1795.31 436.504V168.374H1855.03V436.504H1795.31ZM1752.38 297.56V246.822H1897.96V297.56H1752.38Z" fill="black"/>
<path d="M1669.53 440.798C1650.01 440.798 1632.32 436.504 1616.45 427.918C1600.58 419.332 1588.09 407.493 1578.98 392.402C1569.87 377.31 1565.32 360.398 1565.32 341.664C1565.32 322.67 1569.87 305.757 1578.98 290.926C1588.35 275.835 1600.97 263.996 1616.84 255.409C1632.71 246.823 1650.53 242.53 1670.31 242.53C1685.14 242.53 1698.67 245.132 1710.9 250.336C1723.39 255.279 1734.45 262.825 1744.07 272.973L1705.83 311.221C1701.4 306.277 1696.2 302.635 1690.21 300.293C1684.49 297.951 1677.86 296.78 1670.31 296.78C1661.72 296.78 1654.05 298.732 1647.28 302.635C1640.78 306.277 1635.57 311.481 1631.67 318.246C1628.03 324.751 1626.21 332.427 1626.21 341.273C1626.21 350.12 1628.03 357.926 1631.67 364.691C1635.57 371.456 1640.91 376.79 1647.67 380.693C1654.44 384.596 1661.98 386.547 1670.31 386.547C1678.12 386.547 1685.01 385.246 1691 382.644C1697.24 379.782 1702.57 375.879 1707 370.936L1744.86 409.184C1734.97 419.592 1723.78 427.528 1711.29 432.992C1698.8 438.196 1684.88 440.798 1669.53 440.798Z" fill="black"/>
<path d="M1424.92 440.409C1407.49 440.409 1391.88 436.115 1378.09 427.529C1364.56 418.943 1353.76 407.234 1345.69 392.403C1337.89 377.572 1333.98 360.659 1333.98 341.665C1333.98 322.671 1337.89 305.758 1345.69 290.927C1353.76 276.096 1364.56 264.387 1378.09 255.801C1391.88 247.215 1407.49 242.921 1424.92 242.921C1437.67 242.921 1449.12 245.393 1459.27 250.337C1469.68 255.281 1478.13 262.176 1484.64 271.022C1491.14 279.609 1494.78 289.496 1495.57 300.684V382.646C1494.78 393.834 1491.14 403.851 1484.64 412.698C1478.39 421.284 1470.07 428.049 1459.66 432.993C1449.25 437.937 1437.67 440.409 1424.92 440.409ZM1437.02 386.548C1449.77 386.548 1460.05 382.385 1467.85 374.059C1475.66 365.473 1479.56 354.675 1479.56 341.665C1479.56 332.818 1477.74 325.013 1474.1 318.248C1470.72 311.483 1465.77 306.279 1459.27 302.636C1453.02 298.733 1445.74 296.782 1437.41 296.782C1429.09 296.782 1421.67 298.733 1415.17 302.636C1408.92 306.279 1403.85 311.483 1399.94 318.248C1396.3 325.013 1394.48 332.818 1394.48 341.665C1394.48 350.251 1396.3 357.927 1399.94 364.692C1403.59 371.457 1408.66 376.791 1415.17 380.694C1421.67 384.597 1428.96 386.548 1437.02 386.548ZM1477.22 436.506V385.378L1486.2 339.323L1477.22 293.269V246.824H1535.77V436.506H1477.22Z" fill="black"/>
<path d="M1184.47 436.506V246.824H1244.18V436.506H1184.47ZM1244.18 332.298L1219.21 312.783C1224.15 290.667 1232.48 273.494 1244.18 261.265C1255.89 249.036 1272.16 242.921 1292.97 242.921C1302.08 242.921 1310.01 244.352 1316.78 247.215C1323.8 249.817 1329.92 253.98 1335.12 259.704L1299.61 304.587C1297 301.725 1293.75 299.514 1289.85 297.952C1285.95 296.391 1281.52 295.611 1276.58 295.611C1266.69 295.611 1258.76 298.733 1252.77 304.978C1247.05 310.962 1244.18 320.069 1244.18 332.298Z" fill="black"/>
<path d="M1064.32 440.798C1043.76 440.798 1025.42 436.635 1009.29 428.308C993.415 419.722 980.926 407.883 971.819 392.792C962.712 377.701 958.159 360.658 958.159 341.664C958.159 322.67 962.582 305.757 971.429 290.926C980.536 275.835 992.765 263.996 1008.12 255.41C1023.47 246.823 1040.77 242.53 1060.02 242.53C1078.76 242.53 1095.28 246.563 1109.59 254.629C1123.9 262.695 1135.09 273.883 1143.16 288.194C1151.48 302.505 1155.65 318.897 1155.65 337.371C1155.65 340.753 1155.39 344.396 1154.87 348.299C1154.61 351.941 1153.95 356.235 1152.91 361.178L989.382 361.569V320.588L1127.55 320.198L1101.79 337.371C1101.53 326.442 1099.83 317.466 1096.71 310.44C1093.59 303.155 1088.91 297.691 1082.66 294.048C1076.68 290.145 1069.26 288.194 1060.42 288.194C1051.05 288.194 1042.85 290.406 1035.83 294.829C1029.06 298.992 1023.73 304.976 1019.82 312.782C1016.18 320.588 1014.36 330.085 1014.36 341.273C1014.36 352.462 1016.31 362.089 1020.22 370.155C1024.38 377.961 1030.1 384.075 1037.39 388.499C1044.93 392.662 1053.78 394.743 1063.93 394.743C1073.29 394.743 1081.75 393.182 1089.3 390.06C1096.84 386.677 1103.48 381.734 1109.2 375.229L1141.99 408.013C1132.62 418.941 1121.3 427.137 1108.03 432.602C1094.76 438.066 1080.19 440.798 1064.32 440.798Z" fill="black"/>
<path d="M883.834 436.503L838.17 362.738L825.29 354.541L750.744 246.821H820.606L863.148 315.903L875.637 323.708L952.915 436.503H883.834ZM747.232 436.503L824.9 326.05L858.855 364.299L812.41 436.503H747.232ZM875.247 354.151L841.292 315.903L884.224 246.821H949.012L875.247 354.151Z" fill="black"/>
<path d="M651.159 440.798C630.604 440.798 612.26 436.634 596.128 428.308C580.256 419.722 567.767 407.883 558.66 392.792C549.553 377.701 545 360.658 545 341.664C545 322.67 549.423 305.757 558.27 290.926C567.377 275.835 579.606 263.996 594.957 255.409C610.309 246.823 627.612 242.53 646.866 242.53C665.6 242.53 682.122 246.563 696.433 254.629C710.744 262.695 721.932 273.883 729.998 288.194C738.324 302.505 742.487 318.897 742.487 337.371C742.487 340.753 742.227 344.396 741.707 348.299C741.446 351.941 740.796 356.235 739.755 361.178L576.223 361.569V320.588L714.386 320.198L688.627 337.371C688.367 326.442 686.676 317.466 683.553 310.44C680.431 303.155 675.747 297.691 669.503 294.048C663.518 290.145 656.103 288.194 647.256 288.194C637.889 288.194 629.693 290.406 622.668 294.829C615.903 298.992 610.569 304.976 606.666 312.782C603.023 320.588 601.202 330.085 601.202 341.273C601.202 352.462 603.153 362.089 607.056 370.155C611.219 377.961 616.944 384.075 624.229 388.499C631.775 392.662 640.621 394.743 650.769 394.743C660.136 394.743 668.592 393.182 676.138 390.06C683.683 386.677 690.318 381.734 696.043 375.229L728.827 408.013C719.46 418.941 708.142 427.137 694.872 432.602C681.602 438.066 667.031 440.798 651.159 440.798Z" fill="black"/>
<defs>
<linearGradient id="paint0_linear_296_7" x1="286.126" y1="437.668" x2="138.285" y2="181.6" gradientUnits="userSpaceOnUse">
<stop stop-color="#00EFBB"/>
<stop offset="1" stop-color="#7253FF"/>
</linearGradient>
<linearGradient id="paint1_linear_296_7" x1="275.849" y1="297.018" x2="128.008" y2="553.086" gradientUnits="userSpaceOnUse">
<stop stop-color="#0095F7"/>
<stop offset="1" stop-color="#00EFBB"/>
</linearGradient>
<linearGradient id="paint2_linear_296_7" x1="159.11" y1="375.26" x2="454.792" y2="375.26" gradientUnits="userSpaceOnUse">
<stop stop-color="#7253FF"/>
<stop offset="1" stop-color="#0095F7"/>
</linearGradient>
<linearGradient id="paint3_linear_296_7" x1="264.096" y1="442.265" x2="257.701" y2="453.342" gradientUnits="userSpaceOnUse">
<stop stop-opacity="0"/>
<stop offset="1" stop-opacity="0.3"/>
</linearGradient>
<linearGradient id="paint4_linear_296_7" x1="291.53" y1="314.661" x2="304.321" y2="314.661" gradientUnits="userSpaceOnUse">
<stop stop-opacity="0"/>
<stop offset="1" stop-opacity="0.3"/>
</linearGradient>
<linearGradient id="paint5_linear_296_7" x1="154.994" y1="345.001" x2="161.389" y2="356.078" gradientUnits="userSpaceOnUse">
<stop stop-opacity="0.3"/>
<stop offset="1" stop-opacity="0"/>
</linearGradient>
<linearGradient id="paint6_linear_296_7" x1="207.41" y1="95.0442" x2="254.758" y2="177.053" gradientUnits="userSpaceOnUse">
<stop stop-opacity="0.3"/>
<stop offset="1" stop-opacity="0"/>
</linearGradient>
<linearGradient id="paint7_linear_296_7" x1="494.66" y1="477.622" x2="399.965" y2="477.622" gradientUnits="userSpaceOnUse">
<stop stop-opacity="0.3"/>
<stop offset="1" stop-opacity="0"/>
</linearGradient>
<linearGradient id="paint8_linear_296_7" x1="18.3076" y1="536.356" x2="65.6552" y2="454.348" gradientUnits="userSpaceOnUse">
<stop stop-opacity="0.3"/>
<stop offset="1" stop-opacity="0"/>
</linearGradient>
</defs>
</svg>
