<svg width="1881" height="500" viewBox="0 0 1881 500" fill="none" xmlns="http://www.w3.org/2000/svg">
<path d="M1777.74 345.505V77.3755H1837.45V345.505H1777.74ZM1734.81 206.562V155.824H1880.39V206.562H1734.81Z" fill="white"/>
<path d="M1651.96 349.799C1632.44 349.799 1614.75 345.506 1598.88 336.92C1583 328.333 1570.51 316.494 1561.41 301.403C1552.3 286.312 1547.75 269.399 1547.75 250.665C1547.75 231.671 1552.3 214.759 1561.41 199.928C1570.78 184.836 1583.39 172.998 1599.27 164.411C1615.14 155.825 1632.96 151.532 1652.74 151.532C1667.57 151.532 1681.1 154.133 1693.33 159.337C1705.82 164.281 1716.87 171.827 1726.5 181.974L1688.25 220.223C1683.83 215.279 1678.63 211.636 1672.64 209.295C1666.92 206.953 1660.28 205.782 1652.74 205.782C1644.15 205.782 1636.47 207.733 1629.71 211.636C1623.2 215.279 1618 220.483 1614.1 227.248C1610.45 233.753 1608.63 241.429 1608.63 250.275C1608.63 259.122 1610.45 266.928 1614.1 273.693C1618 280.458 1623.33 285.792 1630.1 289.694C1636.86 293.597 1644.41 295.549 1652.74 295.549C1660.54 295.549 1667.44 294.248 1673.42 291.646C1679.67 288.784 1685 284.881 1689.42 279.937L1727.28 318.186C1717.39 328.593 1706.21 336.529 1693.72 341.993C1681.23 347.197 1667.31 349.799 1651.96 349.799Z" fill="white"/>
<path d="M1407.35 349.41C1389.92 349.41 1374.3 345.117 1360.51 336.531C1346.98 327.944 1336.19 316.236 1328.12 301.405C1320.31 286.573 1316.41 269.661 1316.41 250.667C1316.41 231.673 1320.31 214.76 1328.12 199.929C1336.19 185.098 1346.98 173.389 1360.51 164.803C1374.3 156.216 1389.92 151.923 1407.35 151.923C1420.1 151.923 1431.55 154.395 1441.69 159.339C1452.1 164.282 1460.56 171.177 1467.06 180.024C1473.57 188.61 1477.21 198.498 1477.99 209.686V291.647C1477.21 302.836 1473.57 312.853 1467.06 321.7C1460.82 330.286 1452.49 337.051 1442.09 341.995C1431.68 346.938 1420.1 349.41 1407.35 349.41ZM1419.45 295.55C1432.2 295.55 1442.48 291.387 1450.28 283.061C1458.09 274.474 1461.99 263.676 1461.99 250.667C1461.99 241.82 1460.17 234.014 1456.53 227.249C1453.14 220.484 1448.2 215.28 1441.69 211.638C1435.45 207.735 1428.16 205.783 1419.84 205.783C1411.51 205.783 1404.1 207.735 1397.59 211.638C1391.35 215.28 1386.27 220.484 1382.37 227.249C1378.73 234.014 1376.91 241.82 1376.91 250.667C1376.91 259.253 1378.73 266.929 1382.37 273.694C1386.01 280.459 1391.09 285.793 1397.59 289.696C1404.1 293.599 1411.38 295.55 1419.45 295.55ZM1459.65 345.507V294.379L1468.62 248.325L1459.65 202.271V155.826H1518.19V345.507H1459.65Z" fill="white"/>
<path d="M1166.9 345.507V155.826H1226.61V345.507H1166.9ZM1226.61 241.3L1201.63 221.785C1206.58 199.669 1214.9 182.496 1226.61 170.267C1238.32 158.038 1254.58 151.923 1275.4 151.923C1284.5 151.923 1292.44 153.354 1299.21 156.216C1306.23 158.818 1312.34 162.981 1317.55 168.706L1282.03 213.589C1279.43 210.727 1276.18 208.515 1272.28 206.954C1268.37 205.393 1263.95 204.612 1259.01 204.612C1249.12 204.612 1241.18 207.735 1235.2 213.979C1229.47 219.964 1226.61 229.071 1226.61 241.3Z" fill="white"/>
<path d="M1046.74 349.799C1026.19 349.799 1007.85 345.636 991.714 337.31C975.842 328.724 963.352 316.885 954.246 301.794C945.139 286.702 940.585 269.66 940.585 250.665C940.585 231.671 945.009 214.759 953.855 199.928C962.962 184.836 975.191 172.998 990.543 164.411C1005.89 155.825 1023.2 151.532 1042.45 151.532C1061.19 151.532 1077.71 155.565 1092.02 163.631C1106.33 171.697 1117.52 182.885 1125.58 197.196C1133.91 211.506 1138.07 227.898 1138.07 246.372C1138.07 249.755 1137.81 253.397 1137.29 257.3C1137.03 260.943 1136.38 265.236 1135.34 270.18L971.809 270.57V229.59L1109.97 229.199L1084.21 246.372C1083.95 235.444 1082.26 226.467 1079.14 219.442C1076.02 212.157 1071.33 206.693 1065.09 203.05C1059.1 199.147 1051.69 197.196 1042.84 197.196C1033.47 197.196 1025.28 199.407 1018.25 203.83C1011.49 207.994 1006.15 213.978 1002.25 221.784C998.609 229.59 996.787 239.087 996.787 250.275C996.787 261.463 998.739 271.091 1002.64 279.157C1006.8 286.962 1012.53 293.077 1019.81 297.5C1027.36 301.663 1036.21 303.745 1046.35 303.745C1055.72 303.745 1064.18 302.184 1071.72 299.061C1079.27 295.679 1085.9 290.735 1091.63 284.23L1124.41 317.015C1115.05 327.943 1103.73 336.139 1090.46 341.603C1077.19 347.067 1062.62 349.799 1046.74 349.799Z" fill="white"/>
<path d="M866.26 345.504L820.596 271.739L807.716 263.543L733.171 155.823H803.033L845.575 224.904L858.064 232.71L935.342 345.504H866.26ZM729.658 345.504L807.326 235.052L841.281 273.3L794.837 345.504H729.658ZM857.674 263.153L823.718 224.904L866.65 155.823H931.439L857.674 263.153Z" fill="white"/>
<path d="M633.586 349.799C613.03 349.799 594.687 345.636 578.555 337.31C562.683 328.724 550.193 316.885 541.087 301.793C531.98 286.702 527.427 269.66 527.427 250.665C527.427 231.671 531.85 214.759 540.696 199.928C549.803 184.836 562.032 172.998 577.384 164.411C592.735 155.825 610.038 151.532 629.292 151.532C648.026 151.532 664.549 155.565 678.859 163.631C693.17 171.697 704.358 182.885 712.424 197.196C720.751 211.506 724.914 227.898 724.914 246.372C724.914 249.755 724.654 253.397 724.133 257.3C723.873 260.943 723.222 265.236 722.182 270.18L558.65 270.57V229.59L696.813 229.199L671.054 246.372C670.793 235.444 669.102 226.467 665.98 219.442C662.857 212.157 658.174 206.693 651.929 203.05C645.945 199.147 638.529 197.196 629.683 197.196C620.316 197.196 612.12 199.407 605.094 203.83C598.329 207.994 592.995 213.978 589.092 221.784C585.45 229.59 583.628 239.087 583.628 250.275C583.628 261.463 585.58 271.091 589.483 279.157C593.646 286.962 599.37 293.077 606.656 297.5C614.201 301.663 623.048 303.745 633.195 303.745C642.562 303.745 651.019 302.184 658.564 299.061C666.11 295.679 672.745 290.735 678.469 284.23L711.254 317.015C701.887 327.943 690.568 336.139 677.298 341.603C664.028 347.067 649.457 349.799 633.586 349.799Z" fill="white"/>
<path d="M0.0615282 444.78L2.40367e-05 224.248L191.017 114.036L285.482 168.821L285.681 274.966L191.2 220.208L92.0811 277.412L92.1035 391.848L186.768 446.295L94.7393 499.197L0.0615282 444.78ZM191.197 223.234L170.794 235.009L191.198 223.233L288.31 279.513L288.31 279.514L191.197 223.234Z" fill="white"/>
<path d="M191.556 334.927L191.739 222.687L191.74 222.686L191.557 334.927L226.879 355.331L191.556 334.927ZM97.0791 389.68L97.291 280.48L189.116 227.236L188.935 336.438L288.033 393.676L387.127 336.438L386.948 227.233L478.776 280.48L478.988 389.682L288.036 500.002L97.0791 389.68ZM481.498 335.025L481.389 278.969L445.764 258.312L481.39 278.969L481.498 335.025ZM94.4561 391.188L94.4551 391.189L94.6748 278.969L120.736 263.858L94.6758 278.969L94.4561 391.188Z" fill="white"/>
<path d="M190.98 0.00099038L190.981 1.38179e-05L190.98 0.00099038ZM195.24 335.283L289.902 280.839L289.922 166.398L190.806 109.199L96.3208 163.957L96.521 57.8076L190.987 3.02247L382.002 113.232L381.939 333.768L287.263 388.184L195.24 335.283ZM287.263 391.205L287.262 391.204L287.263 391.205ZM189.989 335.286L189.987 335.285L266.751 291.135L189.989 335.286Z" fill="white"/>
</svg>
